<svg width="112" height="49" viewBox="0 0 112 49" fill="none" xmlns="http://www.w3.org/2000/svg">
<path d="M91.098 36.7502C91.6396 36.7502 92.1588 36.5352 92.5416 36.1524C92.9246 35.7694 93.1396 35.2502 93.1396 34.7086V30.6252C93.1396 30.0838 92.9246 29.5646 92.5416 29.1816C92.1588 28.7987 91.6396 28.5836 91.098 28.5836C90.5565 28.5836 90.0373 28.7987 89.6543 29.1816C89.2715 29.5646 89.0563 30.0838 89.0563 30.6252V34.7086C89.0563 35.2502 89.2715 35.7694 89.6543 36.1524C90.0373 36.5352 90.5565 36.7502 91.098 36.7502ZM82.9313 36.7502C83.4729 36.7502 83.9921 36.5352 84.3749 36.1524C84.758 35.7694 84.973 35.2502 84.973 34.7086V30.6252C84.973 30.0838 84.758 29.5646 84.3749 29.1816C83.9921 28.7987 83.4729 28.5836 82.9313 28.5836C82.3899 28.5836 81.8706 28.7987 81.4877 29.1816C81.1048 29.5646 80.8897 30.0838 80.8897 30.6252V34.7086C80.8897 35.2502 81.1048 35.7694 81.4877 36.1524C81.8706 36.5352 82.3899 36.7502 82.9313 36.7502ZM101.306 12.2503H98.4888L94.9567 5.20657C94.8489 4.94738 94.6886 4.71324 94.4861 4.51879C94.2836 4.32433 94.0433 4.17373 93.7799 4.07639C93.5165 3.97906 93.236 3.93708 92.9557 3.95309C92.6753 3.9691 92.4014 4.04274 92.1508 4.16942C91.9001 4.29611 91.6784 4.4731 91.4993 4.68935C91.3203 4.90561 91.1878 5.15645 91.1102 5.42623C91.0324 5.69602 91.0112 5.97893 91.0477 6.25731C91.0843 6.53568 91.1778 6.8035 91.3225 7.04407L93.9155 12.2503H80.1139L82.7068 7.04407C82.9049 6.56818 82.9158 6.03492 82.737 5.55139C82.5583 5.06784 82.2033 4.66982 81.7432 4.43719C81.2832 4.20458 80.7522 4.15462 80.2568 4.29733C79.7614 4.44005 79.3384 4.76486 79.0726 5.20657L75.5405 12.2503H72.723C71.28 12.2723 69.891 12.8031 68.8011 13.7492C67.7112 14.6953 66.9904 15.9958 66.7658 17.4215C66.5412 18.8471 66.8273 20.3063 67.5735 21.5416C68.3198 22.7771 69.4783 23.7091 70.8447 24.1736L72.3555 39.4044C72.5079 40.9205 73.2199 42.3254 74.3524 43.3448C75.485 44.364 76.9568 44.9246 78.4805 44.9169H95.5896C97.1133 44.9246 98.5851 44.364 99.7179 43.3448C100.85 42.3254 101.562 40.9205 101.715 39.4044L103.225 24.1736C104.595 23.7076 105.755 22.7722 106.501 21.5327C107.247 20.2933 107.53 18.8299 107.3 17.4017C107.07 15.9736 106.342 14.6729 105.245 13.7301C104.148 12.7872 102.753 12.263 101.306 12.2503ZM97.6109 38.9961C97.5602 39.5016 97.3228 39.9697 96.9453 40.3097C96.5678 40.6494 96.0772 40.8362 95.5692 40.8335H78.4601C77.9522 40.8362 77.4616 40.6494 77.0841 40.3097C76.7066 39.9697 76.4692 39.5016 76.4185 38.9961L74.9689 24.5002H99.0605L97.6109 38.9961ZM101.306 20.4169H72.723C72.1815 20.4169 71.6622 20.2019 71.2794 19.819C70.8965 19.4361 70.6814 18.9168 70.6814 18.3753C70.6814 17.8338 70.8965 17.3145 71.2794 16.9316C71.6622 16.5488 72.1815 16.3337 72.723 16.3337H101.306C101.848 16.3337 102.367 16.5488 102.75 16.9316C103.133 17.3145 103.348 17.8338 103.348 18.3753C103.348 18.9168 103.133 19.4361 102.75 19.819C102.367 20.2019 101.848 20.4169 101.306 20.4169Z" fill="#5A5A5A"/>
<path d="M41.9173 10.2087C39.7531 8.03882 36.8842 6.71447 33.829 6.47484C30.7736 6.23521 27.7334 7.0961 25.2573 8.90204C22.6597 6.96986 19.4263 6.09374 16.2085 6.45006C12.9907 6.80639 10.0274 8.36869 7.91534 10.8224C5.80332 13.2761 4.69941 16.4389 4.82595 19.6739C4.9525 22.909 6.30008 25.9757 8.59732 28.2571L21.276 40.9563C22.3377 42.001 23.7677 42.5868 25.2573 42.5868C26.7469 42.5868 28.1768 42.001 29.2385 40.9563L41.9173 28.2571C44.3011 25.8586 45.6392 22.6143 45.6392 19.2329C45.6392 15.8513 44.3011 12.6071 41.9173 10.2087ZM39.0385 25.4396L26.3598 38.1184C26.2156 38.2639 26.0439 38.3797 25.8547 38.4585C25.6654 38.5375 25.4625 38.5781 25.2573 38.5781C25.0523 38.5781 24.8493 38.5375 24.6601 38.4585C24.4708 38.3797 24.2991 38.2639 24.1548 38.1184L11.4761 25.3784C9.87491 23.7415 8.97832 21.5429 8.97832 19.2533C8.97832 16.9636 9.87491 14.765 11.4761 13.1283C13.1077 11.5174 15.3082 10.6141 17.6011 10.6141C19.8939 10.6141 22.0945 11.5174 23.726 13.1283C23.9159 13.3196 24.1417 13.4715 24.3906 13.5752C24.6393 13.6788 24.9061 13.7322 25.1756 13.7322C25.4451 13.7322 25.7119 13.6788 25.9608 13.5752C26.2097 13.4715 26.4355 13.3196 26.6252 13.1283C28.2569 11.5174 30.4574 10.6141 32.7502 10.6141C35.0432 10.6141 37.2437 11.5174 38.8752 13.1283C40.4985 14.7436 41.4244 16.9303 41.455 19.22C41.4855 21.5096 40.6182 23.7203 39.0385 25.3784V25.4396Z" fill="#5A5A5A"/>
</svg>
