<svg width="36" height="37" viewBox="0 0 36 37" fill="none" xmlns="http://www.w3.org/2000/svg">
<path d="M26.565 25.1137C26.8475 25.404 27.0062 25.7978 27.0062 26.2083C27.0062 26.6189 26.8475 27.0126 26.565 27.3029C26.2826 27.5932 25.8995 27.7563 25.5 27.7563C25.1006 27.7563 24.7175 27.5932 24.435 27.3029L18 20.6737L11.565 27.3029C11.2826 27.5932 10.8995 27.7563 10.5 27.7563C10.1006 27.7563 9.71749 27.5932 9.43503 27.3029C9.15258 27.0126 8.9939 26.6189 8.9939 26.2083C8.9939 25.7978 9.15258 25.404 9.43503 25.1137L15.885 18.5L9.43503 11.8862C9.15258 11.5959 8.9939 11.2022 8.9939 10.7917C8.9939 10.3811 9.15258 9.98738 9.43503 9.69707C9.71749 9.40677 10.1006 9.24368 10.5 9.24368C10.8995 9.24368 11.2826 9.40677 11.565 9.69707L18 16.3262L24.435 9.69707C24.7175 9.40677 25.1006 9.24368 25.5 9.24368C25.8995 9.24368 26.2826 9.40677 26.565 9.69707C26.8475 9.98738 27.0062 10.3811 27.0062 10.7917C27.0062 11.2022 26.8475 11.5959 26.565 11.8862L20.115 18.5L26.565 25.1137Z" fill="#1A1A1A"/>
</svg>
