<svg width="71" height="71" viewBox="0 0 71 71" fill="none" xmlns="http://www.w3.org/2000/svg">
<path d="M32.7814 57.2281C32.7814 58.1568 32.506 59.0646 31.99 59.8368C31.4741 60.609 30.7407 61.2108 29.8827 61.5662C29.0247 61.9216 28.0806 62.0146 27.1697 61.8335C26.2588 61.6523 25.4221 61.2051 24.7655 60.5484C24.1088 59.8917 23.6615 59.055 23.4804 58.1441C23.2992 57.2333 23.3922 56.2891 23.7476 55.4311C24.103 54.5731 24.7048 53.8397 25.477 53.3238C26.2492 52.8078 27.1571 52.5324 28.0858 52.5324C29.3311 52.5324 30.5255 53.0271 31.4061 53.9077C32.2867 54.7883 32.7814 55.9827 32.7814 57.2281ZM52.1509 52.5324C51.5343 52.5324 50.9237 52.6539 50.354 52.8899C49.7843 53.1258 49.2666 53.4717 48.8306 53.9077C48.3946 54.3438 48.0487 54.8614 47.8127 55.4311C47.5767 56.0008 47.4553 56.6114 47.4553 57.2281C47.4553 57.8447 47.5767 58.4553 47.8127 59.025C48.0487 59.5947 48.3946 60.1123 48.8306 60.5484C49.2666 60.9844 49.7843 61.3303 50.354 61.5662C50.9237 61.8022 51.5343 61.9237 52.1509 61.9237C53.3963 61.9237 54.5906 61.429 55.4712 60.5484C56.3518 59.6678 56.8465 58.4734 56.8465 57.2281C56.8465 55.9827 56.3518 54.7883 55.4712 53.9077C54.5906 53.0271 53.3963 52.5324 52.1509 52.5324ZM59.9574 20.2499C59.2024 20.0637 58.4044 20.1848 57.7386 20.5864C57.0728 20.9881 56.5937 21.6376 56.4063 22.3923L51.652 41.527C51.4856 42.1727 51.1043 42.7425 50.5709 43.1426C50.0375 43.5427 49.3837 43.7492 48.7172 43.7281H31.5488C30.8823 43.7492 30.2286 43.5427 29.6951 43.1426C29.1617 42.7425 28.7804 42.1727 28.614 41.527L21.013 10.7413C20.8523 10.0901 20.4734 9.51362 19.9394 9.1078C19.4055 8.70198 18.7486 8.4913 18.0782 8.51083H11.1815C10.4031 8.51083 9.65666 8.82003 9.10628 9.3704C8.5559 9.92078 8.2467 10.6673 8.2467 11.4456C8.2467 12.224 8.5559 12.9704 9.10628 13.5208C9.65666 14.0712 10.4031 14.3804 11.1815 14.3804H15.8771L23.0086 42.9357C23.4861 44.8391 24.5858 46.5284 26.1331 47.7353C27.6803 48.9423 29.5865 49.5978 31.5488 49.5976H48.8053C50.7676 49.5978 52.6737 48.9423 54.221 47.7353C55.7683 46.5284 56.868 44.8391 57.3455 42.9357L62.0998 23.9184C62.1964 23.5426 62.2174 23.1513 62.1618 22.7673C62.1062 22.3833 61.975 22.0141 61.7757 21.6811C61.5765 21.3482 61.3132 21.058 61.0011 20.8274C60.689 20.5969 60.3342 20.4305 59.9574 20.338V20.2499ZM32.2825 34.102C32.8324 34.6486 33.5762 34.9555 34.3515 34.9555C35.1268 34.9555 35.8707 34.6486 36.4205 34.102L40.2651 30.2575L44.0216 34.102C44.583 34.5828 45.3052 34.8341 46.0438 34.8055C46.7824 34.777 47.4831 34.4708 48.0057 33.9482C48.5284 33.4255 48.8346 32.7248 48.8631 31.9862C48.8916 31.2476 48.6404 30.5254 48.1596 29.964L44.4031 26.1195L48.2477 22.2749C48.7943 21.725 49.1011 20.9812 49.1011 20.2059C49.1011 19.4306 48.7943 18.6867 48.2477 18.1369C47.9748 17.8618 47.6502 17.6435 47.2926 17.4945C46.935 17.3455 46.5514 17.2688 46.164 17.2688C45.7765 17.2688 45.393 17.3455 45.0353 17.4945C44.6777 17.6435 44.3531 17.8618 44.0803 18.1369L40.2651 21.9521L36.4499 18.1662C35.9011 17.6136 35.1553 17.3016 34.3766 17.2988C33.5978 17.2961 32.8498 17.6028 32.2972 18.1516C31.7445 18.7003 31.4325 19.4461 31.4298 20.2249C31.427 21.0037 31.7338 21.7516 32.2825 22.3043L36.0977 26.1195L32.2825 29.9347C32.0074 30.2075 31.7891 30.5321 31.6401 30.8897C31.4911 31.2473 31.4144 31.6309 31.4144 32.0184C31.4144 32.4058 31.4911 32.7894 31.6401 33.147C31.7891 33.5046 32.0074 33.8292 32.2825 34.102Z" fill="#222221"/>
</svg>
