<svg width="57" height="54" viewBox="0 0 57 54" fill="none" xmlns="http://www.w3.org/2000/svg">
<rect width="56.2105" height="54" fill="#1A1A1A"/>
<path d="M28.1052 36C27.4338 35.428 26.6749 34.833 25.8724 34.2H25.862C23.0358 31.98 19.8329 29.468 18.4182 26.458C17.9535 25.4997 17.7072 24.4571 17.6958 23.4C17.6927 21.9495 18.2983 20.559 19.3757 19.5428C20.4531 18.5266 21.9114 17.9704 23.421 18C24.6499 18.0019 25.8524 18.3431 26.8852 18.983C27.339 19.266 27.7496 19.6083 28.1052 20C28.4627 19.6098 28.8735 19.2677 29.3262 18.983C30.3586 18.343 31.5608 18.0017 32.7894 18C34.2989 17.9704 35.7573 18.5266 36.8347 19.5428C37.9121 20.559 38.5176 21.9495 38.5145 23.4C38.5039 24.4588 38.2576 25.5032 37.7921 26.463C36.3775 29.473 33.1756 31.984 30.3494 34.2L30.339 34.208C29.5354 34.837 28.7776 35.432 28.1062 36.008L28.1052 36ZM23.421 20C22.4513 19.9884 21.5161 20.3449 20.8186 20.992C20.1466 21.6262 19.771 22.4951 19.7776 23.4C19.7895 24.1705 19.9711 24.9299 20.3107 25.628C20.9784 26.9267 21.8795 28.102 22.9723 29.1C24.0039 30.1 25.1906 31.068 26.2169 31.882C26.5011 32.107 26.7905 32.334 27.0798 32.561L27.262 32.704C27.5399 32.922 27.8272 33.148 28.1052 33.37L28.1187 33.358L28.1249 33.353H28.1312L28.1406 33.346H28.1458H28.151L28.1697 33.331L28.2124 33.298L28.2197 33.292L28.2311 33.284H28.2374L28.2467 33.276L28.9379 32.731L29.119 32.588C29.4115 32.359 29.7009 32.132 29.9851 31.907C31.0114 31.093 32.1992 30.126 33.2307 29.121C34.3238 28.1236 35.2248 26.9485 35.8924 25.65C36.2381 24.9458 36.4223 24.1785 36.4327 23.4C36.437 22.4979 36.0616 21.6323 35.3917 21C34.6955 20.3499 33.7601 19.9905 32.7894 20C31.6047 19.9903 30.4722 20.4674 29.677 21.311L28.1052 23.051L26.5333 21.311C25.7382 20.4674 24.6056 19.9903 23.421 20Z" fill="white"/>
</svg>
