<svg id="Слой_1" data-name="Слой 1" xmlns="http://www.w3.org/2000/svg" xmlns:xlink="http://www.w3.org/1999/xlink" width="251" height="77" viewBox="0 0 251 77">
  <defs>
    <style>
      .cls-1 {
        fill: none;
      }

      .cls-2 {
        clip-path: url(#clip-path);
      }

      .cls-3 {
        fill: #5a5a5a;
      }

      .cls-4 {
        clip-path: url(#clip-path-2);
      }

      .cls-5 {
        fill: #17a2b8;
      }

      .cls-6 {
        fill: #d1ecf1;
      }

      .cls-7 {
        fill: #d1f1da;
      }

      .cls-8 {
        fill: #fff;
      }

      .cls-9 {
        clip-path: url(#clip-path-3);
      }

      .cls-10 {
        clip-path: url(#clip-path-5);
      }

      .cls-11 {
        fill: #6e8985;
      }

      .cls-12 {
        fill: #7c9b96;
      }

      .cls-13 {
        fill: #c3cab7;
      }
    </style>
    <clipPath id="clip-path">
      <rect class="cls-1" x="131.4" y="23.78" width="30.79" height="30.36"/>
    </clipPath>
    <clipPath id="clip-path-2">
      <rect class="cls-1" width="120.59" height="76.1"/>
    </clipPath>
    <clipPath id="clip-path-3">
      <rect class="cls-1" x="157.19" y="-11.56" width="99.22" height="99.22"/>
    </clipPath>
    <clipPath id="clip-path-5">
      <rect class="cls-1" x="173.16" y="7.37" width="67.29" height="67.1"/>
    </clipPath>
  </defs>
  <title>Монтажная область 1-100001</title>
  <g class="cls-2">
    <path class="cls-3" d="M155.77,31.89,154,30.1l-7.17,7.08-7.17-7.08-1.81,1.79L145,39,137.81,46l1.81,1.78,7.17-7.07L154,47.81,155.77,46,148.6,39Z"/>
  </g>
  <g class="cls-4">
    <g>
      <path class="cls-5" d="M20.41,19.82a.36.36,0,0,1,.37-.35H35.62A3.26,3.26,0,0,1,39,22.65V34a3.26,3.26,0,0,1-3.34,3.18H23.75A3.26,3.26,0,0,1,20.41,34Z"/>
      <path class="cls-5" d="M40.81,19.82a.37.37,0,0,1,.38-.35H56a3.26,3.26,0,0,1,3.34,3.18V34A3.26,3.26,0,0,1,56,37.16H44.15A3.26,3.26,0,0,1,40.81,34Z"/>
      <path class="cls-5" d="M40.81,39.29a.37.37,0,0,1,.38-.36H56a3.27,3.27,0,0,1,3.34,3.19V53.45A3.27,3.27,0,0,1,56,56.63H44.15a3.27,3.27,0,0,1-3.34-3.18Z"/>
      <path class="cls-6" d="M61.22.35A.37.37,0,0,1,61.59,0H76.43a3.27,3.27,0,0,1,3.34,3.19V14.51a3.27,3.27,0,0,1-3.34,3.19H64.56a3.27,3.27,0,0,1-3.34-3.19Z"/>
      <path class="cls-6" d="M40.81,58.75a.37.37,0,0,1,.38-.35H56a3.27,3.27,0,0,1,3.34,3.19V72.91A3.27,3.27,0,0,1,56,76.1H44.15a3.27,3.27,0,0,1-3.34-3.19Z"/>
      <path class="cls-7" d="M61.22,19.82a.37.37,0,0,1,.37-.35H76.43a3.26,3.26,0,0,1,3.34,3.18V34a3.26,3.26,0,0,1-3.34,3.18H64.56A3.26,3.26,0,0,1,61.22,34Z"/>
      <path class="cls-7" d="M0,19.82a.37.37,0,0,1,.37-.35H15.21a3.26,3.26,0,0,1,3.34,3.18V34a3.26,3.26,0,0,1-3.34,3.18H3.34A3.26,3.26,0,0,1,0,34Z"/>
      <path class="cls-7" d="M20.41,39.29a.36.36,0,0,1,.37-.36H35.62A3.27,3.27,0,0,1,39,42.12V53.45a3.27,3.27,0,0,1-3.34,3.18H23.75a3.26,3.26,0,0,1-3.34-3.18Z"/>
      <path class="cls-5" d="M61.22,39.29a.37.37,0,0,1,.37-.36H76.43a3.27,3.27,0,0,1,3.34,3.19V53.45a3.26,3.26,0,0,1-3.34,3.18H64.56a3.27,3.27,0,0,1-3.34-3.18Z"/>
      <path class="cls-5" d="M81.63,39.29a.36.36,0,0,1,.37-.36H97.09a3,3,0,0,1,3.09,3v11.8a3,3,0,0,1-3.09,3H84.72a3,3,0,0,1-3.09-3Z"/>
      <path class="cls-5" d="M102,39.29a.36.36,0,0,1,.37-.36H117.5a3,3,0,0,1,3.09,3v11.8a3,3,0,0,1-3.09,3H105.13a3,3,0,0,1-3.09-3Z"/>
      <path class="cls-8" d="M27.67,30.51a7.44,7.44,0,0,0-.14,1.34,1.63,1.63,0,0,0,1.74,1.77,3,3,0,0,0,2.65-2.09c0-.26-.08-.37-.28-.37a2,2,0,0,1-1.56,1.23c-.53,0-.78-.39-.63-1.24L30,28c.17-1,0-1.4-1.1-1.4a1.76,1.76,0,0,0-.77.12,2.4,2.4,0,0,1,0,1.22Zm1-6.09a.83.83,0,0,0,.89.85,1,1,0,0,0,1.07-1,.86.86,0,0,0-.92-.89A1,1,0,0,0,28.66,24.42Z"/>
      <path class="cls-8" d="M47.91,25.84c-.32,0-.5.17-.5.41a.5.5,0,0,0,.1.3h1l-.55,3a8.48,8.48,0,0,0-.16,1.52,1.85,1.85,0,0,0,2,1.87,3.2,3.2,0,0,0,2.83-2.1c.06-.24-.07-.37-.27-.37a2.11,2.11,0,0,1-1.78,1.23c-.7,0-1-.46-.84-1.24l.71-3.89h1.2c.33,0,.51-.17.51-.41a.45.45,0,0,0-.11-.3H50.51l.14-.71c.19-1,0-1.4-1.1-1.4a1.65,1.65,0,0,0-.77.13,2.11,2.11,0,0,1,0,1.21l-.15.77Z"/>
      <path class="cls-8" d="M70.81,52.86h-1.6l1.38-8.24-2.46,1.16.25-1.52L71,42.94h1.43Z"/>
      <path class="cls-8" d="M50.4,52.86H48.8l1.38-8.24-2.46,1.16L48,44.26l2.66-1.32h1.42Z"/>
      <path class="cls-8" d="M90.74,46.37a3.73,3.73,0,0,1,2.6.86,2.7,2.7,0,0,1,1,2.12A3.05,3.05,0,0,1,93,52a5.3,5.3,0,0,1-3.23,1,5.48,5.48,0,0,1-3.09-.78l.24-1.47a4.8,4.8,0,0,0,2.85.86,3.81,3.81,0,0,0,2-.53,1.71,1.71,0,0,0,.89-1.58,1.58,1.58,0,0,0-.68-1.3,3.07,3.07,0,0,0-1.87-.51,9.3,9.3,0,0,0-2.33.34l1.47-5.12h5.42l-.21,1.37h-4.2l-.66,2.27A5,5,0,0,1,90.74,46.37Z"/>
      <path class="cls-8" d="M113.63,47.85a2.34,2.34,0,0,1,1.73,2.28,2.57,2.57,0,0,1-1.2,2.22,5.28,5.28,0,0,1-3.07.81,5.57,5.57,0,0,1-1.8-.3,3.64,3.64,0,0,1-1.48-1,2.3,2.3,0,0,1-.62-1.62,2.41,2.41,0,0,1,.67-1.71,3.35,3.35,0,0,1,1.82-1,2,2,0,0,1-1.29-1.93,2.36,2.36,0,0,1,1.07-2,4.25,4.25,0,0,1,2.55-.76,4.54,4.54,0,0,1,2.45.68,2.1,2.1,0,0,1,1.1,1.9,2.26,2.26,0,0,1-.52,1.47A3.13,3.13,0,0,1,113.63,47.85ZM112,44.18a2.56,2.56,0,0,0-1.41.41,1.31,1.31,0,0,0-.61,1.15,1.22,1.22,0,0,0,.58,1.06,2.44,2.44,0,0,0,1.38.4,2.61,2.61,0,0,0,1.41-.41,1.35,1.35,0,0,0,.62-1.16,1.2,1.2,0,0,0-.58-1.05A2.31,2.31,0,0,0,112,44.18ZM113.69,50a1.39,1.39,0,0,0-.69-1.18,2.84,2.84,0,0,0-1.67-.46,3.06,3.06,0,0,0-1.71.48,1.47,1.47,0,0,0-.71,1.29,1.41,1.41,0,0,0,.7,1.23,3.06,3.06,0,0,0,1.66.45,3,3,0,0,0,1.68-.48A1.53,1.53,0,0,0,113.69,50Z"/>
    </g>
  </g>
  <g class="cls-9">
    <g class="cls-9">
      <g class="cls-10">
        <g class="cls-10">
          <path class="cls-11" d="M240.45,60.58v9.19s-1.11,5.31-6.5,4.63l-27.13.07-27.13-.07c-5.39.68-6.5-4.63-6.5-4.63V60.58s.07,3.19,4.56,4.49h58.1c4.49-1.3,4.56-4.49,4.56-4.49Z"/>
          <path class="cls-12" d="M240.34,13.92l.11,46.66h0s-.07,3.19-4.56,4.49h-58.1c-4.49-1.3-4.56-4.49-4.56-4.49V37.39s-.9-5.45,6.71-5.92h14.22s6.28-.64,5.31-6.71v-13a5.07,5.07,0,0,1,5.6-4.3l28.71,0s7.32-.72,6.6,6.53M221.82,48.59V24H218V44.64h-9.29V39.12l-9.26,7.39,9.26,7.39V48.59Z"/>
          <polygon class="cls-13" points="221.82 24.01 221.82 48.59 208.69 48.59 208.69 53.9 199.43 46.51 208.69 39.12 208.69 44.64 217.98 44.64 217.98 24.01 219.85 24.01 221.82 24.01"/>
        </g>
      </g>
    </g>
  </g>
</svg>
