<svg width="235" height="92" viewBox="0 0 235 92" fill="none" xmlns="http://www.w3.org/2000/svg">
<path d="M220.44 45.6643C220.644 45.867 220.807 46.1081 220.917 46.3738C221.028 46.6394 221.085 46.9244 221.085 47.2122C221.085 47.5 221.028 47.7849 220.917 48.0506C220.807 48.3163 220.644 48.5574 220.44 48.7601L202.999 66.201C202.796 66.4053 202.555 66.5675 202.29 66.6782C202.024 66.7889 201.739 66.8459 201.451 66.8459C201.163 66.8459 200.878 66.7889 200.613 66.6782C200.347 66.5675 200.106 66.4053 199.903 66.201C199.699 65.9983 199.537 65.7572 199.426 65.4915C199.315 65.2259 199.258 64.9409 199.258 64.6531C199.258 64.3653 199.315 64.0804 199.426 63.8147C199.537 63.549 199.699 63.3079 199.903 63.1052L215.818 47.2122L199.903 31.3191C199.493 30.9086 199.262 30.3518 199.262 29.7713C199.262 29.1907 199.493 28.6339 199.903 28.2234C200.314 27.8128 200.871 27.5822 201.451 27.5822C202.032 27.5822 202.589 27.8128 202.999 28.2234L220.44 45.6643Z" fill="#D9D8D8"/>
<circle cx="118.439" cy="46.206" r="43.7793" fill="white" stroke="#D9D8D8" stroke-width="3"/>
<path d="M34.9624 63.1052C35.1667 63.3079 35.3289 63.549 35.4396 63.8147C35.5503 64.0804 35.6073 64.3653 35.6073 64.6531C35.6073 64.9409 35.5503 65.2259 35.4396 65.4915C35.3289 65.7572 35.1667 65.9983 34.9624 66.201C34.7597 66.4053 34.5186 66.5675 34.2529 66.6782C33.9873 66.7889 33.7023 66.8459 33.4145 66.8459C33.1267 66.8459 32.8418 66.7889 32.5761 66.6782C32.3104 66.5675 32.0693 66.4053 31.8666 66.201L14.4257 48.7601C14.2214 48.5574 14.0592 48.3163 13.9485 48.0506C13.8378 47.7849 13.7808 47.5 13.7808 47.2122C13.7808 46.9244 13.8378 46.6394 13.9485 46.3738C14.0592 46.1081 14.2214 45.867 14.4257 45.6643L31.8666 28.2234C32.2772 27.8128 32.8339 27.5822 33.4145 27.5822C33.702 27.5822 33.9866 27.6388 34.2522 27.7488C34.5178 27.8589 34.7591 28.0201 34.9624 28.2234C35.1657 28.4266 35.3269 28.668 35.4369 28.9335C35.5469 29.1991 35.6036 29.4838 35.6036 29.7713C35.6036 30.0587 35.5469 30.3434 35.4369 30.609C35.3269 30.8745 35.1657 31.1159 34.9624 31.3191L19.0475 47.2122L34.9624 63.1052Z" fill="#D9D8D8"/>
</svg>
